<?xml version="1.0" encoding="utf-8"?>
<!-- Generator: Adobe Illustrator 21.1.0, SVG Export Plug-In . SVG Version: 6.00 Build 0)  -->
<svg version="1.1" id="Layer_1" xmlns="http://www.w3.org/2000/svg" xmlns:xlink="http://www.w3.org/1999/xlink" x="0px" y="0px"
	 viewBox="0 0 841.9 595.3" style="enable-background:new 0 0 841.9 595.3;" xml:space="preserve">
<style type="text/css">
	.st0{fill:#5FC7D2;}
	.st1{fill:#E63C72;}
	.st2{fill:#343A54;}
	.st3{fill:#603C71;}
</style>
<g>
	<g>
		<path class="st0" d="M800.4,142l-50.1,145.3C750.3,287.3,665.6,196,800.4,142z"/>
		<path class="st1" d="M800.2,142l-145.8,50.3C654.3,192.3,747.1,277.2,800.2,142z"/>
	</g>
	<path class="st2" d="M165.7,254.6h48.6v20.3h0.5c0,0,15.4-24.5,43.1-24.5c18.1,0,30.8,8.8,30.8,8.8l-20.3,41.2
		c0,0-9.1-7.7-25.3-7.7c-25.3,0-28.8,25-28.8,28.6v74.2h-48.6V254.6z"/>
	<ellipse class="st2" cx="327.5" cy="196.3" rx="28.9" ry="28.8"/>
	<rect x="302.5" y="254.6" class="st2" width="48.6" height="140.9"/>
	<path class="st2" d="M385.5,159.3h48.6v236.3h-48.6V159.3z"/>
	<path class="st2" d="M467,159.3h48.6v236.3H467V159.3z"/>
	<path class="st2" d="M65.8,201.4h48.6v52.5h29.7V291h-29.7v44.8c0,13.2,3.3,19.5,11,19.5c6.3,0,12.1-4.4,12.1-4.4l12.1,39.3
		c0,0-15.7,8.8-35.7,8.8c-38.7,0-48.1-28.8-48.1-53.8V291H45.4v-37.1h20.3V201.4z"/>
	<path class="st2" d="M621.4,242.6c-43.5,0-78.8,35.3-78.8,78.8s35.3,78.8,78.8,78.8c43.5,0,78.8-35.3,78.8-78.8
		S665,242.6,621.4,242.6z M621.4,356.5c-19.3,0-35-15.7-35-35c0-19.3,15.7-35,35-35c19.3,0,35,15.7,35,35
		C656.4,340.8,640.8,356.5,621.4,356.5z"/>
	<path class="st3" d="M724.4,217.7c0.1-0.7,0.2-2.8,0.8-5.7c0.3-1.7,0.9-4.6,2.2-8.4c1.1-3.1,2.1-5.3,2.7-6.6c0.5-1,0.9-1.8,1.2-2.4
		c0,0,0,0,0,0c0.3-0.6,1.1-2.1,2.4-4.2c0.6-1,2.4-3.9,5.4-7.7c3.5-4.3,6.5-7.3,8.3-9c0.9-0.9,4.4-4.2,9.5-8.1
		c2.9-2.2,5.2-3.8,6.8-4.8c1.1-0.7,4.5-3,9.5-5.8c7.5-4.3,13.6-7.1,17.3-8.8c3.9-1.8,7.3-3.2,9.6-4.1c-0.6,1.4-1.2,3.2-2.1,5.1
		c-0.4,0.9-1.5,3.5-2.9,6.6c-1.3,2.9-3.4,7.4-6.5,13.1c-3.2,5.9-6,10.2-6.8,11.4c-3.1,4.7-5.5,7.8-6.2,8.8c-1.3,1.7-2.4,3-3,3.7
		c-1.5,1.8-4,4.7-7.7,8.1c-2.3,2.1-4.1,3.6-4.9,4.3c-2.4,2-4.4,3.3-5.1,3.8c-1.7,1.1-4.7,3.2-9,5.3c-3.8,1.8-7,3-9.2,3.6
		c-3.2,1-7.4,2-12.5,2.5C724.4,218.1,724.4,218,724.4,217.7z"/>
</g>
</svg>
